<svg width="206" height="64" viewBox="0 0 206 64" fill="none" xmlns="http://www.w3.org/2000/svg">
<g clip-path="url(#clip0_89_934)">
<path d="M56.2222 0.516485C53.6511 2.36651 51.3909 4.43736 49.4319 6.84026C49.2601 7.05127 49.0408 7.24102 48.9295 7.48147C48.2503 8.94709 47.0981 9.22353 45.5646 9.17446C42.023 9.05996 38.4765 9.1123 34.9316 9.15647C34.1035 9.16628 33.241 9.30041 32.4636 9.57522C31.5226 9.90727 30.9939 10.6924 31.0038 11.7295C31.012 12.6242 31.6617 13.3849 32.6895 13.7104C33.8302 14.0719 34.9889 14.3761 36.1312 14.736C36.6746 14.9077 37.2098 15.1187 37.7237 15.3641C40.5828 16.7201 41.9657 18.8302 41.609 21.966C40.933 27.9299 38.1966 32.5868 32.5127 35.132C29.9367 36.2852 27.1807 36.7122 24.3886 36.7302C16.3725 36.7809 8.35482 36.7612 0.338737 36.7678C0.263453 36.7678 0.189806 36.7383 0.0294189 36.7056C1.14231 33.6222 2.24538 30.565 3.35827 27.4817C3.75596 27.4817 4.10783 27.4817 4.4597 27.4817C11.0045 27.4817 17.5493 27.498 24.0924 27.467C25.3117 27.462 26.5375 27.3246 27.7453 27.1529C28.58 27.0335 29.1446 26.4724 29.467 25.6807C29.9973 24.3738 29.6143 23.3383 28.2903 22.8427C27.1463 22.4141 25.9565 22.105 24.783 21.7615C23.081 21.2642 21.5606 20.4676 20.302 19.1901C18.9125 17.7785 18.541 16.0691 18.9273 14.2109C19.5819 11.0605 20.8045 8.1325 22.68 5.50222C24.8698 2.43194 27.9286 0.837091 31.6388 0.69151C36.0232 0.519757 40.4142 0.550836 44.8036 0.521393C48.3485 0.498492 51.8934 0.516485 55.4383 0.516485H56.2238H56.2222Z" fill="#ED7F01"/>
<path d="M145.89 0.534394C149.311 0.534394 152.69 0.503315 156.068 0.545844C157.973 0.57038 159.878 0.681611 161.777 0.828827C162.554 0.88935 163.333 1.09709 164.084 1.32936C168.171 2.59543 169.933 5.6788 169.01 9.86139C167.801 15.3428 164.241 18.75 159.274 20.9239C158.98 21.0531 158.687 21.1824 158.376 21.3165C160.919 26.1992 161.983 31.4924 163.413 36.7873C162.832 36.7873 162.353 36.7873 161.871 36.7873C158.736 36.7873 155.6 36.7742 152.464 36.7988C151.914 36.8037 151.671 36.6908 151.536 36.0921C150.711 32.4313 149.829 28.782 148.964 25.1294C148.901 24.8677 148.821 24.6125 148.684 24.1201C148.5 24.5585 148.386 24.8072 148.291 25.0623C146.921 28.7313 145.541 32.3954 144.199 36.0741C143.998 36.6254 143.733 36.8069 143.145 36.802C139.984 36.771 136.82 36.7873 133.656 36.7857C133.419 36.7857 133.182 36.7644 132.814 36.7481C137.187 24.6354 141.532 12.5996 145.888 0.532758L145.89 0.534394ZM149.982 16.8035C150.744 16.8035 151.314 16.8117 151.882 16.8035C155.659 16.738 158.093 14.6852 158.824 10.9557C159.13 9.3952 158.543 8.44157 156.976 8.21093C155.88 8.05062 154.756 8.04735 153.644 8.04735C153.43 8.04735 153.111 8.35651 153.021 8.59205C152.235 10.6449 151.489 12.7125 150.731 14.7768C150.5 15.4049 150.268 16.0314 149.982 16.8051V16.8035Z" fill="#ED7F01"/>
<path d="M114.616 37.4829C113.222 37.2686 111.798 37.1688 110.44 36.8172C106.176 35.7163 103.644 32.4465 103.459 28.0398C103.293 24.0747 104.396 20.3927 105.934 16.8153C108.212 11.5155 111.394 6.88474 116.218 3.56745C120.477 0.639477 125.166 -0.644579 130.323 0.310693C135.124 1.20054 137.88 4.54236 137.995 9.47248C138.072 12.8012 137.231 15.9402 136.039 19.0072C134.221 23.6903 131.92 28.0872 128.301 31.6662C124.523 35.4055 119.976 37.3324 114.615 37.4813L114.616 37.4829ZM113.945 24.9204C113.921 28.1903 114.901 29.1603 117.261 29.1112C118.749 29.0801 120.069 28.5747 121.043 27.4574C121.824 26.5611 122.552 25.5845 123.112 24.5409C124.948 21.1255 126.279 17.4991 127.193 13.7352C127.465 12.6164 127.537 11.4239 127.518 10.2691C127.5 9.17641 126.837 8.51721 125.743 8.34872C125.058 8.2424 124.325 8.21132 123.645 8.334C121.562 8.71022 120.231 10.1611 119.073 11.7821C117.264 14.3126 116.117 17.167 115.199 20.1081C114.619 21.9663 114.212 23.8801 113.944 24.922L113.945 24.9204Z" fill="#ED7F01"/>
<path d="M55.0062 37.4959C53.5332 37.2554 52.0243 37.1491 50.5955 36.75C46.504 35.6049 44.0491 32.2648 43.8969 27.9022C43.7758 24.4557 44.6317 21.2088 45.8772 18.0469C48.0621 12.5001 51.1732 7.59451 56.047 4.00897C60.4511 0.768564 65.3544 -0.690517 70.8272 0.320371C75.5046 1.18404 78.2737 4.50132 78.4341 9.2826C78.5471 12.6702 77.7058 15.8615 76.498 18.9825C74.6634 23.7213 72.3247 28.1525 68.6571 31.7642C64.9043 35.4594 60.2973 37.3372 55.0078 37.4959H55.0062ZM54.381 25.4993C54.3613 27.9366 55.1502 28.936 56.9995 29.0931C58.6852 29.2354 60.2138 28.8035 61.3971 27.5571C62.0665 26.8521 62.6949 26.0735 63.1777 25.2327C65.2218 21.6717 66.6113 17.8375 67.6113 13.8708C67.9042 12.7046 67.9926 11.4549 67.9599 10.2493C67.9304 9.12066 67.2774 8.56123 66.176 8.32896C63.8176 7.83169 62.0354 8.86712 60.5362 10.529C58.4348 12.8583 57.2205 15.6849 56.1665 18.5867C55.3106 20.9405 54.5217 23.3156 54.3826 25.501L54.381 25.4993Z" fill="#ED7F01"/>
<path d="M115.922 0.516534C113.533 2.22752 111.274 3.97613 109.335 6.10095C108.638 6.86321 107.958 7.65491 107.374 8.50386C107.014 9.02893 106.625 9.1647 106.029 9.15979C102.676 9.13198 99.3221 9.14016 95.9687 9.14016C94.2307 9.14016 93.6742 9.54255 93.0883 11.1996C92.6644 12.3986 92.2438 13.6008 91.7872 14.9012H101.35C101.26 15.2235 101.211 15.4508 101.132 15.6668C100.386 17.7392 99.6167 19.8019 98.8999 21.8859C98.7199 22.4109 98.4875 22.5909 97.9212 22.5827C95.1684 22.5467 92.414 22.5778 89.6613 22.5467C89.1326 22.5401 88.9101 22.7152 88.7382 23.201C87.226 27.4539 85.6696 31.6905 84.1754 35.9483C83.9413 36.6157 83.6255 36.794 82.9561 36.7875C79.93 36.7515 76.9039 36.7727 73.8779 36.7727C73.6111 36.7727 73.3443 36.7727 72.9794 36.7727C73.0825 36.4292 73.1463 36.174 73.2347 35.9271C76.4293 27.0793 79.6289 18.2316 82.8235 9.38389C84.3865 5.05571 87.172 2.00669 91.7839 0.933648C92.8625 0.68338 93.9917 0.541071 95.0981 0.536163C101.913 0.500177 108.729 0.51817 115.544 0.51817C115.669 0.51817 115.795 0.51817 115.919 0.51817L115.922 0.516534Z" fill="#ED7F01"/>
<path d="M168.621 36.799C171.955 27.5538 175.254 18.4067 178.589 9.15986H172.004C172.305 5.78205 171.423 2.8966 168.745 0.582031H204.443C203.88 2.16216 203.327 3.71775 202.768 5.2717C202.402 6.29567 201.988 7.30493 201.67 8.34526C201.482 8.96193 201.204 9.18112 200.526 9.17294C196.79 9.13205 193.054 9.16804 189.317 9.13859C188.72 9.13368 188.476 9.32997 188.28 9.87795C185.177 18.5327 182.038 27.1743 178.949 35.8339C178.671 36.6158 178.323 36.8366 177.511 36.8202C174.598 36.7614 171.683 36.7973 168.619 36.7973L168.621 36.799Z" fill="#ED7F01"/>
<path d="M81.8464 51.5649C79.6386 55.2584 77.529 58.7164 75.4996 62.2218C74.9088 63.2408 74.1871 63.7594 73.0104 63.6743C72.3868 63.6285 71.7567 63.6743 71.1299 63.6514C70.1119 63.6138 69.9679 63.4731 70.0645 62.4835C70.3574 59.4459 70.67 56.4116 70.9826 53.3773C71.2085 51.1822 71.4638 48.9903 71.67 46.7951C71.7486 45.9576 72.1462 45.565 72.9776 45.5765C73.6306 45.5863 74.2853 45.5765 74.9383 45.583C75.4653 45.5896 75.6142 45.8218 75.5373 46.3682C74.9776 50.3872 74.4506 54.4095 73.9171 58.4318C73.8647 58.8309 73.827 59.2316 73.904 59.6815C74.0463 59.4688 74.1969 59.2627 74.3278 59.0452C76.7206 55.0523 79.1509 51.0824 81.4749 47.0503C82.1033 45.9592 82.8578 45.5176 84.0787 45.5209C86.1163 45.5258 86.1605 45.5143 85.9346 47.5148C85.514 51.2231 85.0787 54.928 84.6466 58.6346C84.6123 58.9307 84.5484 59.2218 84.4993 59.5163L84.7055 59.6046C84.8627 59.3789 85.0361 59.1629 85.1752 58.9274C87.5958 54.825 90.0098 50.7192 92.4287 46.6168C92.9704 45.6975 95.0472 45.125 95.9605 45.6681C96.0783 45.7384 96.1601 46.0525 96.1045 46.1964C95.9605 46.5743 95.751 46.9309 95.5366 47.276C92.4041 52.3174 89.2553 57.3473 86.1425 62.4001C85.6155 63.2572 84.9543 63.7021 83.9494 63.6661C83.2146 63.64 82.4765 63.6776 81.7417 63.6465C80.8579 63.6073 80.6893 63.3815 80.7859 62.5326C81.1427 59.3936 81.4994 56.2546 81.8415 53.1123C81.8873 52.687 81.848 52.2519 81.848 51.5666L81.8464 51.5649Z" fill="white"/>
<path d="M159.847 49.8906C158.741 52.9953 157.706 55.8954 156.672 58.794C156.215 60.0731 155.724 61.3424 155.305 62.6347C155.078 63.3397 154.646 63.6161 153.934 63.6668C151.713 63.8239 151.631 63.7339 152.368 61.6876C154.073 56.957 155.777 52.2265 157.48 47.4959C158.052 45.9092 158.436 45.6377 160.11 45.6377C160.356 45.6377 160.601 45.6377 160.847 45.6377C162.837 45.6377 163.053 45.8225 163.354 47.8001C163.865 51.1632 164.37 54.5263 164.881 57.8894C164.899 58.0121 164.966 58.1282 165.035 58.3163C166.295 54.8109 167.526 51.3873 168.757 47.9637C168.858 47.6824 168.933 47.3879 169.069 47.1246C169.31 46.6617 169.508 45.9321 169.871 45.8258C170.65 45.6001 171.532 45.6213 172.357 45.6966C172.897 45.7457 172.643 46.2266 172.529 46.5439C171.36 49.7925 170.187 53.0378 169.015 56.2847C168.341 58.1511 167.667 60.0175 166.989 61.8822C166.475 63.2988 165.997 63.6374 164.521 63.6423C162.01 63.6488 161.942 63.572 161.551 61.0595C161.053 57.86 160.523 54.6653 160.014 51.4658C159.94 51.0062 159.912 50.5384 159.844 49.8874L159.847 49.8906Z" fill="white"/>
<path d="M30.9759 53.8735C32.9644 54.7159 33.5683 55.9918 32.8727 58.0054C31.7238 61.3357 29.1756 63.0156 25.8435 63.4262C23.6095 63.701 21.3265 63.593 19.0647 63.611C18.2759 63.6176 18.0876 63.2021 18.415 62.2877C19.5066 59.242 20.6129 56.2011 21.7127 53.1587C22.4525 51.114 23.1873 49.066 23.932 47.023C24.3444 45.8894 24.7175 45.6195 25.9352 45.6408C27.9776 45.6751 30.0332 45.6048 32.0577 45.8207C34.6304 46.0939 35.5306 47.7673 34.6304 50.2012C33.9774 51.9662 32.7205 53.1407 30.9743 53.8751L30.9759 53.8735ZM22.4901 60.899C23.8583 60.8254 25.0841 60.8646 26.2707 60.6667C27.688 60.4312 28.6356 59.5184 29.0611 58.1215C29.4571 56.8227 28.9318 55.9394 27.5996 55.7987C26.6569 55.699 25.7011 55.7268 24.7503 55.7251C24.5915 55.7251 24.3346 55.8249 24.2904 55.9427C23.693 57.531 23.1251 59.1307 22.4901 60.8973V60.899ZM25.3443 52.9951C26.305 52.9951 27.1773 53.0572 28.0366 52.9804C29.4719 52.8511 30.7844 51.5245 30.9824 50.108C31.1232 49.1102 30.7059 48.5279 29.6961 48.4363C28.94 48.3676 28.174 48.3807 27.413 48.397C27.2379 48.4003 26.9629 48.5311 26.9089 48.6718C26.3721 50.0851 25.873 51.5131 25.3427 52.9951H25.3443Z" fill="white"/>
<path d="M184.907 56.1434C183.802 56.1434 182.848 56.1254 181.895 56.1499C181.324 56.1647 181.142 55.9406 181.324 55.4073C181.447 55.0475 181.571 54.6876 181.692 54.3277C181.933 53.6129 182.393 53.3299 183.177 53.3545C184.866 53.4084 186.558 53.3626 188.249 53.3741C189.158 53.3806 189.389 53.6849 189.083 54.5535C188.234 56.9629 187.38 59.3724 186.461 61.7556C186.293 62.1907 185.879 62.6929 185.461 62.8434C182.787 63.8085 180.038 64.2763 177.203 63.6564C174.246 63.0086 172.735 60.9688 173.071 57.9493C173.622 52.9946 177.165 47.3398 183.219 45.7614C185.425 45.1872 187.63 45.1267 189.83 45.7973C190.037 45.8611 190.245 45.9298 190.443 46.0165C191.697 46.571 191.852 46.9325 191.407 48.2313C191.363 48.3605 191.322 48.4898 191.271 48.6157C190.705 50.0372 190.615 50.0683 189.296 49.288C186.517 47.6441 182.966 48.0727 180.367 50.4085C178.602 51.9935 177.54 54.0055 177.141 56.3217C176.594 59.4999 178.403 61.2665 181.651 60.8298C182.766 60.6809 183.645 60.3473 183.894 59.0239C184.07 58.0801 184.525 57.1903 184.905 56.1401L184.907 56.1434Z" fill="white"/>
<path d="M62.0059 55.2684C63.0304 56.1255 63.1957 57.2918 63.2546 58.5088C63.3152 59.734 63.4379 60.9542 63.487 62.1794C63.5361 63.4144 63.3201 63.627 62.1172 63.663C61.6 63.6794 61.0796 63.6401 60.564 63.6728C59.8095 63.7219 59.4937 63.4324 59.4855 62.6456C59.4691 61.1751 59.3971 59.7045 59.2826 58.2373C59.1565 56.6146 58.042 55.8425 56.5052 56.294C56.3138 56.3496 56.1452 56.6588 56.0617 56.8861C55.3678 58.7738 54.6657 60.6598 54.0307 62.5687C53.7721 63.3457 53.3041 63.6238 52.5316 63.6614C49.9539 63.7906 49.9359 63.7824 50.8 61.3877C52.5185 56.6326 54.2386 51.8775 55.9619 47.124C56.4234 45.8531 56.736 45.6192 58.0518 45.6388C60.1483 45.6699 62.2628 45.5734 64.338 45.8105C66.9942 46.1148 67.9369 47.8405 67.0875 50.3873C66.3232 52.6823 64.9894 53.9713 62.001 55.2668L62.0059 55.2684ZM57.2974 53.4854C58.1893 53.4854 59.0076 53.5443 59.8145 53.474C61.5787 53.3202 62.9125 52.1065 63.2857 50.4053C63.5099 49.3846 63.1531 48.7418 62.1057 48.5733C61.2285 48.431 60.3234 48.4539 59.4299 48.4375C59.2907 48.4343 59.0665 48.5864 59.0174 48.7173C58.4348 50.2859 57.8767 51.8644 57.2974 53.4854Z" fill="white"/>
<path d="M5.2927 63.9811C4.67079 63.914 4.0407 63.8813 3.42697 63.7717C0.860779 63.317 -0.399405 61.552 0.112852 58.9954C0.346886 57.8307 0.76422 56.6955 1.16191 55.5701C2.23062 52.5456 3.34842 49.5391 4.41384 46.513C4.61515 45.9405 4.93428 45.6395 5.52346 45.6264C6.17483 45.6117 6.8262 45.6035 7.47757 45.6134C8.16658 45.6232 8.2795 45.934 8.04547 46.5654C6.84747 49.8025 5.66421 53.0462 4.52186 56.3046C4.24527 57.0897 4.03743 57.9288 3.98014 58.7549C3.89831 59.9392 4.61678 60.7014 5.80168 60.8617C7.93418 61.1496 9.60351 60.3399 10.7868 58.5897C11.2221 57.9452 11.5331 57.2009 11.8047 56.4665C13.0093 53.2016 14.1991 49.9317 15.3431 46.6471C15.5886 45.9438 15.9715 45.6003 16.69 45.6035C17.3136 45.6068 17.9387 45.6035 18.5623 45.633C19.0451 45.6559 19.2317 45.8653 19.0402 46.3838C17.6621 50.1345 16.3938 53.9278 14.9143 57.6393C13.2924 61.709 9.72299 63.9533 5.29106 63.9844L5.2927 63.9811Z" fill="white"/>
<path d="M138.699 63.9614C138.281 63.9042 137.57 63.8617 136.882 63.703C134.462 63.1468 133.311 61.4767 133.832 59.0509C134.156 57.5444 134.709 56.0821 135.219 54.623C136.154 51.9551 137.152 49.3085 138.078 46.6389C138.308 45.9797 138.651 45.615 139.352 45.6117C139.406 45.6117 139.46 45.597 139.514 45.5904C141.91 45.2911 142.109 45.5315 141.314 47.7332C140.236 50.725 139.146 53.7135 138.096 56.7167C137.876 57.3498 137.722 58.0319 137.687 58.6993C137.625 59.9293 138.329 60.7063 139.548 60.8633C141.682 61.1381 143.375 60.3383 144.51 58.5586C145.086 57.6556 145.46 56.6088 145.838 55.593C146.946 52.611 148.029 49.6209 149.075 46.6177C149.307 45.9503 149.666 45.6035 150.356 45.6084C151.034 45.6133 151.715 45.6051 152.391 45.6493C152.795 45.6771 152.934 45.8947 152.775 46.3281C151.368 50.1558 150.119 54.0472 148.548 57.8045C146.813 61.9511 143.438 63.8617 138.697 63.9598L138.699 63.9614Z" fill="white"/>
<path d="M101.052 52.8691C102.798 52.8691 104.378 52.8887 105.957 52.8593C106.646 52.8462 106.867 53.0866 106.62 53.7377C106.543 53.9405 106.499 54.1564 106.423 54.3592C105.959 55.6122 105.883 55.6629 104.54 55.6629C103.258 55.6629 101.977 55.6826 100.697 55.6531C100.221 55.6417 99.9768 55.766 99.8164 56.2502C99.3287 57.7158 98.7771 59.1601 98.2043 60.7435H99.1388C100.774 60.7435 102.41 60.7419 104.045 60.7435C104.968 60.7452 105.036 60.8401 104.777 61.7463C104.739 61.8771 104.693 62.0047 104.648 62.1323C104.148 63.5488 104.045 63.6224 102.554 63.6224C100.019 63.6224 97.4842 63.6274 94.9491 63.6208C93.905 63.6175 93.666 63.2953 94.0179 62.3155C95.864 57.176 97.7183 52.0398 99.5791 46.9052C99.9359 45.9221 100.373 45.6358 101.42 45.6358C104.119 45.6326 106.818 45.6587 109.515 45.6195C110.292 45.608 110.431 45.8828 110.191 46.5355C110.125 46.7138 110.081 46.9003 110.017 47.0786C109.535 48.4215 109.446 48.482 108.032 48.482C106.451 48.482 104.87 48.4984 103.289 48.4722C102.81 48.464 102.558 48.5933 102.401 49.0774C101.998 50.3108 101.535 51.5245 101.05 52.8675L101.052 52.8691Z" fill="white"/>
<path d="M42.5499 52.8687C44.2455 52.8687 45.8248 52.8654 47.4041 52.8687C48.1913 52.8719 48.3173 53.0339 48.1128 53.7896C48.0277 54.1037 47.8902 54.403 47.7854 54.7105C47.5449 55.4204 47.0964 55.7165 46.3076 55.6789C44.9197 55.6134 43.527 55.6445 42.1375 55.6756C41.8953 55.6805 41.514 55.831 41.442 56.0109C40.8479 57.524 40.3111 59.0599 39.7072 60.7268H46.36C46.4025 61.8096 46.0506 62.6455 45.486 63.3848C45.3567 63.5533 44.9999 63.6122 44.7479 63.6139C41.9395 63.6286 39.1311 63.6302 36.3227 63.6188C35.434 63.6155 35.1836 63.2703 35.4864 62.4247C37.357 57.205 39.2407 51.9903 41.1277 46.7755C41.3814 46.0771 41.856 45.6354 42.6481 45.6338C45.5384 45.6338 48.4286 45.6338 51.3189 45.6354C51.4482 45.6354 51.5791 45.6747 51.7689 45.7041C51.764 46.6594 51.4694 47.4953 50.9081 48.2052C50.751 48.4047 50.3287 48.462 50.0259 48.4669C48.3632 48.4914 46.6971 48.5258 45.0376 48.4571C44.2897 48.426 43.9869 48.6975 43.7807 49.3682C43.4321 50.5067 42.9951 51.619 42.5499 52.8638V52.8687Z" fill="white"/>
<path d="M120.78 64.0007C120.122 63.811 118.968 63.5264 117.852 63.1371C117.092 62.8721 116.847 62.2734 117.171 61.4915C117.357 61.04 117.505 60.5722 117.708 60.1273C117.996 59.491 118.39 59.3716 118.986 59.8361C120.331 60.883 121.858 61.2347 123.527 60.8454C124.558 60.6049 125.367 60.0406 125.868 59.0886C126.387 58.1023 126.246 57.4005 125.329 56.7544C124.732 56.3324 124.074 55.9954 123.437 55.6306C121.054 54.2681 120.516 52.7059 121.56 50.164C123.128 46.3495 127.943 44.2737 131.796 45.7508C133.039 46.2284 133.169 46.5081 132.725 47.7725C132.699 47.8494 132.656 47.9214 132.629 47.9983C132.238 49.0397 131.555 49.2954 130.581 48.7654C129.424 48.1357 128.182 47.8936 126.974 48.4448C126.354 48.7278 125.779 49.2922 125.398 49.8696C124.871 50.6678 125.067 51.3663 125.853 51.929C126.491 52.3853 127.2 52.7452 127.886 53.1345C130.375 54.5462 130.958 56.1868 129.742 58.7827C128.079 62.329 125.067 63.7619 120.78 64.0007V64.0007Z" fill="white"/>
<path d="M110.354 63.6915C108.561 63.6996 108.502 63.6179 109.099 61.9641C110.911 56.9555 112.75 51.9567 114.505 46.9284C114.842 45.9633 115.353 45.6083 116.315 45.5429C118.508 45.3924 118.662 45.556 117.933 47.5761C116.202 52.382 114.472 57.1894 112.741 61.9952C112.161 63.6031 112.047 63.6816 110.354 63.6898V63.6915Z" fill="white"/>
<path d="M15.5575 44.0295C14.2008 44.0262 13.9258 43.6157 14.407 42.3071C14.9438 40.848 16.0943 40.2657 17.5804 40.6664C18.0599 40.7956 18.2465 41.0524 18.2154 41.5432C18.1188 43.0775 17.109 44.0328 15.5575 44.0295V44.0295Z" fill="white"/>
<path d="M9.56092 44.0276C8.19108 44.0276 7.90304 43.6138 8.37766 42.3199C8.91283 40.8575 10.0437 40.2769 11.5428 40.6596C12.0207 40.7823 12.2613 41.0293 12.1811 41.52C11.9291 43.0527 11.2384 44.1274 9.56256 44.0276H9.56092Z" fill="white"/>
</g>
<defs>
<clipPath id="clip0_89_934">
<rect width="204.444" height="64" fill="white"/>
</clipPath>
</defs>
</svg>
