<svg width="53" height="24" viewBox="0 0 53 24" fill="none" xmlns="http://www.w3.org/2000/svg">
<path d="M52.1667 19.6009C50.8641 19.6009 49.5615 19.6009 48.2396 19.6009C48.0959 18.9046 47.9417 18.2234 47.8201 17.5363C47.7696 17.2512 47.6791 17.1407 47.3635 17.1448C45.7889 17.1651 44.2137 17.1602 42.6389 17.1476C42.4005 17.1456 42.3057 17.2251 42.2332 17.4441C42.0163 18.0988 41.779 18.7467 41.5362 19.3922C41.5033 19.4799 41.394 19.6001 41.3193 19.6008C39.8998 19.6132 38.4801 19.61 37.0197 19.61C37.2858 18.9635 37.5378 18.3464 37.7936 17.7308C39.624 13.3271 41.455 8.92366 43.2859 4.52021C43.6824 3.56646 44.2768 3.16709 45.2994 3.16703C46.4391 3.16696 47.5786 3.16701 48.7473 3.16701C48.8614 3.70389 48.976 4.23291 49.0858 4.76299C49.9865 9.11485 50.885 13.4672 51.7879 17.8185C51.9035 18.3759 52.0399 18.929 52.1667 19.484C52.1667 19.5229 52.1667 19.562 52.1667 19.6009ZM47.0269 13.761C46.6083 11.7375 46.1954 9.74105 45.7824 7.74471C45.7657 7.74136 45.7487 7.73802 45.7319 7.73468C45.0124 9.73609 44.293 11.7375 43.5654 13.761C44.7404 13.761 45.8654 13.761 47.0269 13.761Z" fill="white"/>
<path d="M35.06 2.875C35.5782 2.97204 36.1004 3.05183 36.6136 3.1712C37.0819 3.28013 37.5404 3.43195 38.0381 3.5749C37.7872 4.75785 37.5423 5.91242 37.3027 7.04211C36.6462 6.84792 36.0186 6.62433 35.3736 6.48074C34.4911 6.28435 33.5871 6.2095 32.7044 6.45756C32.3456 6.55838 31.9823 6.752 31.6999 6.99608C31.2153 7.41473 31.2088 8.01742 31.6717 8.45695C31.9907 8.76007 32.369 9.00885 32.747 9.2381C33.6062 9.75916 34.5085 10.2123 35.3436 10.7689C36.327 11.4244 37.0443 12.3256 37.1949 13.5443C37.4612 15.6994 36.671 17.3971 34.8757 18.5981C33.7468 19.3533 32.4693 19.6906 31.1381 19.8156C29.2795 19.99 27.4576 19.78 25.6817 19.1917C25.5627 19.1523 25.4468 19.103 25.3306 19.0551C25.296 19.0408 25.2659 19.0155 25.2129 18.9821C25.4638 17.7974 25.7149 16.6109 25.9732 15.3911C26.2759 15.5244 26.5601 15.658 26.8505 15.776C28.238 16.3399 29.6709 16.5977 31.1559 16.3171C31.5422 16.2441 31.9362 16.0721 32.2637 15.8507C32.9744 15.3703 33.0426 14.4675 32.3955 13.9033C31.9702 13.5324 31.459 13.2585 30.9744 12.9608C30.2175 12.4959 29.4134 12.0996 28.6972 11.5793C27.7791 10.9122 27.1141 10.0229 26.9882 8.84084C26.7994 7.07096 27.4507 5.63386 28.7979 4.51721C29.97 3.54562 31.3617 3.11445 32.8444 2.93336C32.9268 2.92329 33.007 2.89487 33.0882 2.875C33.7454 2.875 34.4027 2.875 35.06 2.875Z" fill="white"/>
<path d="M19.7872 3.18075C19.5666 3.71611 19.3577 4.22654 19.1459 4.73578C17.1248 9.5981 15.1012 14.4593 13.0881 19.3251C12.9923 19.5569 12.8749 19.6179 12.6419 19.6158C11.3662 19.6053 10.0902 19.6009 8.81473 19.6187C8.5443 19.6225 8.45623 19.5269 8.39397 19.2822C7.31246 15.0322 6.21287 10.7868 5.14372 6.53362C4.94748 5.75333 4.5549 5.22041 3.81833 4.89336C2.63778 4.3691 1.41228 4.00082 0.16226 3.70147C0.10699 3.68824 0.0519361 3.67375 0 3.66067C0.00623664 3.1674 0.00623693 3.16738 0.471404 3.16737C2.7039 3.16737 4.93651 3.16686 7.16902 3.1676C8.22795 3.16794 8.99226 3.78825 9.19248 4.8452C9.75926 7.83737 10.3139 10.8318 10.8737 13.8253C10.8982 13.9562 10.9262 14.0865 10.9633 14.2708C11.0211 14.1611 11.0615 14.0994 11.0879 14.0321C12.4746 10.4954 13.8616 6.95882 15.241 3.41925C15.3164 3.22603 15.4092 3.16049 15.6161 3.16214C16.9111 3.17249 18.2062 3.16715 19.5013 3.16788C19.585 3.16792 19.6686 3.17521 19.7872 3.18075Z" fill="white"/>
<path d="M18.0975 19.6114C19.2639 14.1148 20.422 8.65689 21.583 3.18555C22.9951 3.18555 24.3907 3.18555 25.813 3.18555C25.637 4.01887 25.4648 4.83627 25.2915 5.65343C24.3332 10.1727 23.3713 14.6911 22.4235 19.2126C22.3576 19.5267 22.2473 19.6266 21.9238 19.6202C20.7647 19.5977 19.6047 19.6114 18.445 19.6114C18.341 19.6114 18.237 19.6114 18.0975 19.6114Z" fill="white"/>
</svg>
